<?xml version="1.0" encoding="UTF-8" standalone="no"?>
<!-- Created with Inkscape (http://www.inkscape.org/) -->

<svg
   xmlns:dc="http://purl.org/dc/elements/1.1/"
   xmlns:cc="http://creativecommons.org/ns#"
   xmlns:rdf="http://www.w3.org/1999/02/22-rdf-syntax-ns#"
   xmlns:svg="http://www.w3.org/2000/svg"
   xmlns="http://www.w3.org/2000/svg"
   xmlns:sodipodi="http://sodipodi.sourceforge.net/DTD/sodipodi-0.dtd"
   xmlns:inkscape="http://www.inkscape.org/namespaces/inkscape"
   width="210mm"
   height="297mm"
   viewBox="0 0 210 297"
   version="1.1"
   id="svg8"
   inkscape:version="0.92.4 5da689c313, 2019-01-14"
   sodipodi:docname="battery.svg">
  <defs
     id="defs2" />
  <sodipodi:namedview
     id="base"
     pagecolor="#ffffff"
     bordercolor="#666666"
     borderopacity="1.0"
     inkscape:pageopacity="0.0"
     inkscape:pageshadow="2"
     inkscape:zoom="1.979899"
     inkscape:cx="472.40667"
     inkscape:cy="591.77534"
     inkscape:document-units="mm"
     inkscape:current-layer="layer1"
     showgrid="false"
     inkscape:window-width="1366"
     inkscape:window-height="658"
     inkscape:window-x="0"
     inkscape:window-y="31"
     inkscape:window-maximized="1" />
  <metadata
     id="metadata5">
    <rdf:RDF>
      <cc:Work
         rdf:about="">
        <dc:format>image/svg+xml</dc:format>
        <dc:type
           rdf:resource="http://purl.org/dc/dcmitype/StillImage" />
        <dc:title></dc:title>
      </cc:Work>
    </rdf:RDF>
  </metadata>
  <g
     inkscape:label="Layer 1"
     inkscape:groupmode="layer"
     id="layer1">
    <g
       id="g4597"
       inkscape:export-xdpi="96"
       inkscape:export-ydpi="96">
      <g
         id="g4536">
        <path
           style="opacity:1;fill:#b6c0b6;fill-opacity:1;stroke:#d40000;stroke-width:4.31647158;stroke-miterlimit:4;stroke-dasharray:none;stroke-opacity:1"
           d="M 300.47656 436.21875 C 297.99861 436.21875 295.78892 439.31331 294.2832 444.20312 L 399.4043 444.20312 C 397.89857 439.31331 395.68889 436.21875 393.21094 436.21875 L 300.47656 436.21875 z M 294.12305 607.3418 C 295.62949 612.53169 297.91206 615.83008 300.47656 615.83008 L 393.21094 615.83008 C 395.77544 615.83008 398.058 612.53169 399.56445 607.3418 L 294.12305 607.3418 z "
           transform="scale(0.26458333)"
           id="rect4522" />
        <path
           style="opacity:1;fill:#ff6600;stroke:#d40000;stroke-width:1.26499999;stroke-miterlimit:4;stroke-dasharray:none;stroke-opacity:1"
           d="m 75.770913,117.52851 h 33.141417 c 1.62874,0 2.93997,2.50325 2.93997,5.61266 v 31.93871 c 0,3.10941 -1.31123,5.61266 -2.93997,5.61266 H 75.770913 c -1.628741,0 -2.939965,-2.50325 -2.939965,-5.61266 v -31.93871 c 0,-3.10941 1.311224,-5.61266 2.939965,-5.61266 z"
           id="rect4518" />
      </g>
      <path
         inkscape:connector-curvature="0"
         id="rect4542"
         d="m 97.02431,121.69333 h -2.30182 c -0.93428,0 -1.68653,-0.60484 -1.68653,-1.35605 v -1.12213 h -2.33851 v 1.12213 c 0,0.75121 -0.75208,1.35605 -1.68637,1.35605 h -2.42007 v 2.20566 h 2.42007 c 0.93429,0 1.68637,0.60484 1.68637,1.35605 v 1.08354 h 2.33851 v -1.08354 c 0,-0.75121 0.75224,-1.35605 1.68653,-1.35605 h 2.30182 z"
         style="opacity:1;fill:#00ff00;fill-opacity:1;stroke:#502d16;stroke-width:0.38172695;stroke-miterlimit:4;stroke-dasharray:none;stroke-opacity:1" />
      <rect
         rx="0"
         ry="0.49147522"
         y="155.16953"
         x="86.545616"
         height="3.5296853"
         width="10.478694"
         id="rect4568"
         style="opacity:1;fill:#00ff00;fill-opacity:1;stroke:#502d16;stroke-width:0.40801734;stroke-miterlimit:4;stroke-dasharray:none;stroke-opacity:1" />
      <path
         inkscape:connector-curvature="0"
         id="path4589"
         d="m 80.023404,130.05829 c 11.58452,8.4718 11.58452,8.4718 11.58452,8.4718 l -0.76502,5.13716 11.147356,7.0298 -7.212996,-7.7508 1.31146,-6.66929 z"
         style="fill:#ffff00;stroke:#000000;stroke-width:0.19649565px;stroke-linecap:butt;stroke-linejoin:miter;stroke-opacity:1" />
    </g>
  </g>
</svg>
