<?xml version="1.0" encoding="UTF-8" standalone="no"?>
<!-- Created with Inkscape (http://www.inkscape.org/) -->

<svg
   xmlns:dc="http://purl.org/dc/elements/1.1/"
   xmlns:cc="http://creativecommons.org/ns#"
   xmlns:rdf="http://www.w3.org/1999/02/22-rdf-syntax-ns#"
   xmlns:svg="http://www.w3.org/2000/svg"
   xmlns="http://www.w3.org/2000/svg"
   xmlns:sodipodi="http://sodipodi.sourceforge.net/DTD/sodipodi-0.dtd"
   xmlns:inkscape="http://www.inkscape.org/namespaces/inkscape"
   width="210mm"
   height="297mm"
   viewBox="0 0 210 297"
   version="1.1"
   id="svg8"
   inkscape:version="0.92.4 5da689c313, 2019-01-14"
   sodipodi:docname="dropplet.svg">
  <defs
     id="defs2" />
  <sodipodi:namedview
     id="base"
     pagecolor="#ffffff"
     bordercolor="#666666"
     borderopacity="1.0"
     inkscape:pageopacity="0.0"
     inkscape:pageshadow="2"
     inkscape:zoom="1.4"
     inkscape:cx="106.73278"
     inkscape:cy="675.05266"
     inkscape:document-units="mm"
     inkscape:current-layer="layer1"
     showgrid="false"
     inkscape:window-width="1366"
     inkscape:window-height="658"
     inkscape:window-x="0"
     inkscape:window-y="31"
     inkscape:window-maximized="1" />
  <metadata
     id="metadata5">
    <rdf:RDF>
      <cc:Work
         rdf:about="">
        <dc:format>image/svg+xml</dc:format>
        <dc:type
           rdf:resource="http://purl.org/dc/dcmitype/StillImage" />
        <dc:title></dc:title>
      </cc:Work>
    </rdf:RDF>
  </metadata>
  <g
     inkscape:label="Layer 1"
     inkscape:groupmode="layer"
     id="layer1">
    <path
       id="path4558"
       style="fill:none;stroke:#000000;stroke-width:0.26458332px;stroke-linecap:butt;stroke-linejoin:miter;stroke-opacity:1"
       d="m 65.280582,79.509421 c 0,0 7.307526,5.616177 8.819893,9.621702 0.927278,2.455909 1.2576,4.052001 1.536799,4.610399 -1.611943,-2.215122 -2.410559,-6.288506 -4.835828,-6.645365 0.572473,-1.749509 -3.680576,-5.057824 -5.520864,-7.586736 z m -9.621704,60.870629 c 10.891234,15.23436 25.323788,2.80632 25.390605,1.13592 -13.964833,10.69077 -25.390605,-1.13592 -25.390605,-1.13592 z m 10.845599,-34.16772 c -9.055292,10.24541 -8.304614,24.07284 -8.304614,24.07284 -3.084052,1.15883 -5.092463,0.70419 -5.329595,-2.40736 0,0 1.06908,-15.50163 11.75986,-27.52876 1.191978,1.70597 2.781777,3.45751 1.874349,5.86328 z M 62.407435,76.369004 c 6.147199,12.027128 6.062107,14.343632 -1.336347,25.123336 -10.413461,15.17263 -14.699823,36.34866 0.267269,45.70309 7.47268,4.67042 18.249225,-0.71942 21.293772,-5.42134 4.100503,-6.33271 5.435893,-12.20525 3.562293,-21.30562 C 83.961702,112.09343 78.95233,109.86128 77.335439,95.795708 76.098637,85.036584 68.470575,80.699819 62.407435,76.369004 Z" />
    <path
       style="opacity:1;fill:#5f5fd3;fill-opacity:1;stroke:#161650;stroke-width:1.76827896;stroke-miterlimit:4;stroke-dasharray:none;stroke-opacity:1"
       d="m 205.30243,492.6681 c -2.56744,-1.39525 -4.39418,-5.57071 -4.35054,-9.94422 0.084,-8.41549 4.46203,-27.71521 9.83631,-43.36121 6.31863,-18.39528 20.38683,-43.8797 30.47519,-55.20557 l 3.12934,-3.5132 2.98549,4.72718 c 3.25633,5.15603 4.58811,9.5692 3.91454,12.97168 -0.23787,1.20158 -2.10835,4.27398 -4.15662,6.82755 -16.15483,20.14016 -26.09644,48.10231 -27.86751,78.38116 l -0.50544,8.64129 -3.07578,0.77448 c -4.14991,1.04497 -8.12221,0.93054 -10.38498,-0.29914 z"
       id="path4564"
       inkscape:connector-curvature="0"
       transform="scale(0.26458333)" />
    <path
       style="opacity:1;fill:#8dd35f;fill-opacity:1;stroke:#5aa02c;stroke-width:0.31259051;stroke-miterlimit:4;stroke-dasharray:none;stroke-opacity:1"
       d="m 282.44377,347.17269 c -4.42532,-9.15643 -4.82547,-9.92649 -6.31708,-12.15682 -2.15477,-3.22192 -4.35758,-5.14632 -6.85952,-5.99255 l -0.97131,-0.32852 -0.012,-1.01503 c -0.0356,-3.01303 -2.49898,-6.9141 -8.44614,-13.37553 -0.76497,-0.83112 -2.41363,-2.59563 -3.66369,-3.92115 -3.86841,-4.10191 -5.02626,-5.3672 -4.96629,-5.42717 0.0712,-0.0712 3.3689,2.74576 6.52491,5.57387 2.74335,2.45834 9.99732,9.6803 11.84065,11.78842 5.54718,6.34399 8.51975,10.85455 10.27701,15.59423 1.37497,3.70858 3.71973,10.9354 3.63272,11.19645 -0.0232,0.0697 -0.4909,-0.80159 -1.03926,-1.9362 z"
       id="path4570"
       inkscape:connector-curvature="0"
       transform="scale(0.26458333)" />
    <path
       style="opacity:1;fill:#008033;fill-opacity:1;stroke:#0b2822;stroke-width:0.31259051;stroke-miterlimit:4;stroke-dasharray:none;stroke-opacity:1"
       d="m 255.18472,558.26192 c -0.27779,-0.0275 -1.15852,-0.11158 -1.95717,-0.18679 -7.47163,-0.70363 -15.05068,-3.37134 -21.97082,-7.73339 -3.93201,-2.47851 -8.4359,-6.19332 -11.95307,-9.85889 -1.8682,-1.94703 -4.5223,-4.98268 -4.43379,-5.07119 0.034,-0.034 0.90814,0.57492 1.94248,1.35321 10.50336,7.90331 22.63445,13.10862 34.661,14.87264 3.51465,0.51552 6.21223,0.67057 10.46676,0.60162 5.06938,-0.0822 8.00463,-0.41151 12.75318,-1.43099 9.42045,-2.02251 19.6691,-6.68159 28.53681,-12.97298 0.7292,-0.51735 1.34701,-0.92005 1.3729,-0.89488 0.0988,0.096 -1.65632,2.07478 -2.90958,3.28022 -7.0332,6.76478 -17.34789,12.67867 -27.27712,15.63922 -3.54687,1.05755 -6.80347,1.73172 -10.45588,2.16451 -1.60571,0.19027 -7.61241,0.35296 -8.7757,0.23769 z"
       id="path4572"
       inkscape:connector-curvature="0"
       transform="scale(0.26458333)" />
    <path
       style="opacity:1;fill:#004455;fill-opacity:1;stroke:#00d4aa;stroke-width:1.25036204;stroke-miterlimit:4;stroke-dasharray:none;stroke-opacity:1"
       d="m 249.82133,561.93176 c -8.11853,-1.29138 -14.73695,-4.04258 -21.57389,-8.96802 -17.33599,-12.4891 -27.30315,-28.90234 -31.20408,-51.38474 -1.34495,-7.75141 -1.21198,-25.45979 0.26265,-34.97985 2.18366,-14.0974 6.63081,-29.30849 12.78038,-43.71421 5.98551,-14.0214 10.87359,-22.8145 22.65651,-40.75648 15.2084,-23.15799 18.80607,-30.60657 20.26041,-41.94694 1.29516,-10.09911 -1.67012,-21.27076 -10.656,-40.14642 -2.61912,-5.5017 -3.28175,-7.30514 -2.68409,-7.30514 0.95151,0 12.54882,8.21395 19.30611,13.67382 4.90608,3.9641 13.3184,12.19005 16.23276,15.87314 3.01357,3.80847 6.39999,9.10177 8.51835,13.31498 4.36688,8.68529 6.42172,15.9924 8.13118,28.91487 2.97005,22.45168 7.62996,37.35364 17.43485,55.75495 11.65688,21.87703 14.98791,30.01925 16.84031,41.16372 4.62252,27.81006 1.34709,47.34952 -11.62835,69.36846 -6.14625,10.43002 -14.9331,18.16045 -27.40874,24.11348 -6.03877,2.88153 -12.77376,5.1534 -18.57945,6.26729 -5.13206,0.98464 -14.79694,1.37616 -18.68891,0.75709 z m 18.34719,-3.32205 c 9.04503,-1.71475 17.82764,-5.33945 25.84538,-10.66673 7.57172,-5.03094 13.26054,-10.88165 12.88922,-13.25604 -0.15281,-0.97707 -0.46216,-0.85232 -3.70227,1.493 -19.67126,14.23884 -41.82367,18.31829 -62.62059,11.53181 -9.20626,-3.0042 -19.76299,-8.9473 -26.68104,-15.02058 -1.61347,-1.41645 -3.14764,-2.57536 -3.40926,-2.57536 -2.75647,0 9.11981,13.47723 16.89281,19.16999 6.12606,4.48659 13.86209,7.93587 21.0173,9.37103 4.67663,0.93801 14.698,0.91412 19.76845,-0.0471 z m -50.52745,-64.59646 2.82858,-0.90481 0.31092,-7.63401 c 1.20082,-29.48329 10.46865,-56.82151 26.25592,-77.44963 2.00003,-2.6133 4.09099,-5.32096 4.64658,-6.01702 0.84593,-1.05983 1.00928,-2.01904 1.0048,-5.90049 -0.005,-4.2148 -0.14949,-4.9096 -1.59572,-7.66538 -0.8747,-1.66675 -2.7578,-4.68464 -4.18464,-6.70643 l -2.59426,-3.67597 -2.29856,2.66582 c -13.69695,15.88543 -25.33714,36.61357 -32.97068,58.71218 -5.91521,17.12414 -10.72914,40.36726 -9.60584,46.37997 0.83185,4.45267 2.73482,7.18474 6.04544,8.67934 2.24275,1.0125 8.22433,0.77458 12.15746,-0.48357 z m 67.152,-145.29894 c -3.86845,-12.6669 -5.18606,-15.57805 -10.0227,-22.14424 -5.05321,-6.86021 -26.63385,-27.29008 -27.96091,-26.46991 -0.98709,0.61005 -0.13854,1.84043 5.50495,7.98208 12.54064,13.64759 14.39017,16.14398 14.56032,19.65258 0.0897,1.84841 0.25121,2.05866 2.04928,2.66669 3.29794,1.11522 6.27738,4.92214 10.26463,13.11543 4.40345,9.04852 5.98495,11.63648 6.68392,10.93751 0.35124,-0.35124 0.007,-2.18383 -1.07949,-5.74014 z"
       id="path4574"
       inkscape:connector-curvature="0"
       transform="scale(0.26458333)"
       inkscape:export-filename="/home/carl/hydrogenous/usr/share/hydrogenous/icons/app.png"
       inkscape:export-xdpi="96"
       inkscape:export-ydpi="96" />
  </g>
</svg>
